# Blender v2.90.1 OBJ File: 'ag_sprinter.blend'
# www.blender.org
mtllib ag86.mtl
o AG-SPRINTER_Cube.002
v -0.300000 1.200000 0.500000
v -0.450000 -1.400000 -0.100000
v -1.000000 -0.650000 -0.600000
v -0.450000 -0.750000 0.500000
v 0.250000 0.650000 0.600000
v 0.550000 0.650000 0.600000
v 0.250000 0.900000 0.600000
v 0.550000 0.900000 0.600000
v 0.250000 0.900000 0.850000
v 0.550000 0.900000 0.850000
v -0.400000 -1.550000 -0.150000
v -0.400000 -1.500000 0.200000
v 0.000000 -1.400000 -0.100000
v 0.300000 1.200000 0.500000
v 0.450000 -1.400000 -0.100000
v 0.000000 1.200000 0.500000
v 1.000000 -0.650000 -0.600000
v 0.450000 -0.750000 0.500000
v 0.000000 -0.750000 0.500000
v -0.250000 0.650000 0.600000
v -0.550000 0.650000 0.600000
v -0.250000 0.900000 0.600000
v -0.550000 0.900000 0.600000
v -0.250000 0.900000 0.850000
v -0.550000 0.900000 0.850000
v 0.400000 -1.550000 -0.150000
v 0.000000 -1.550000 -0.150000
v 0.400000 -1.500000 0.200000
v 0.000000 -1.500000 0.200000
vt 0.375000 0.750000
vt 0.625000 0.750000
vt 0.875000 0.750000
vt 0.625000 0.500000
vt 0.625000 0.750000
vt 0.625000 0.500000
vt 0.875000 0.500000
vt 0.000000 0.000000
vt 1.000000 0.000000
vt 1.000000 1.000000
vt 0.000000 1.000000
vt 1.000000 1.000000
vt 0.000000 1.000000
vt 0.000000 0.000000
vt 1.000000 0.000000
vt 1.000000 1.000000
vt 0.000000 1.000000
vt 0.375000 0.750000
vt 0.875000 0.750000
vt 0.625000 0.750000
vt 0.625000 0.750000
vt 0.000000 0.000000
vt 0.000000 1.000000
vt 1.000000 1.000000
vt 1.000000 0.000000
vt 0.000000 1.000000
vt 1.000000 1.000000
vt 0.000000 0.000000
vt 0.000000 1.000000
vn -0.8898 0.0684 0.4511
vn 0.0000 -0.6783 0.7348
vn 0.0000 0.0000 1.0000
vn 0.8469 0.3606 -0.3907
vn 0.0000 -1.0000 0.0000
vn 0.0000 0.7071 -0.7071
vn 1.0000 0.0000 0.0000
vn 0.0000 -0.9899 0.1414
vn 0.8898 0.0684 0.4511
vn -0.8469 0.3606 -0.3907
vn -1.0000 0.0000 0.0000
usemtl Material.002
s off
f 3/1/1 4/2/1 1/3/1
f 19/4/2 4/2/2 2/5/2 13/6/2
f 19/4/3 16/7/3 1/3/3 4/2/3
f 3/1/4 4/2/4 2/5/4
f 5/8/3 6/9/3 8/10/3 7/11/3
f 7/11/5 8/10/5 10/12/5 9/13/5
f 5/8/6 9/13/6 10/12/6 6/9/6
f 7/11/7 9/13/7 5/8/7
f 11/14/8 27/15/8 29/16/8 12/17/8
f 17/18/9 14/19/9 18/20/9
f 19/4/2 13/6/2 15/21/2 18/20/2
f 19/4/3 18/20/3 14/19/3 16/7/3
f 17/18/10 15/21/10 18/20/10
f 20/22/3 22/23/3 23/24/3 21/25/3
f 22/23/5 24/26/5 25/27/5 23/24/5
f 20/22/6 21/25/6 25/27/6 24/26/6
f 22/23/11 20/22/11 24/26/11
f 26/28/8 28/29/8 29/16/8 27/15/8
