# Blender v2.90.1 OBJ File: 'ag_sprinter.blend'
# www.blender.org
mtllib crane.mtl
o CRANE_II_crane.001
v 0.000000 -0.000000 0.500000
v 0.000000 1.150000 1.250000
v 0.000000 -1.250000 1.350000
v 0.500000 -0.750000 -0.500000
v 1.500000 -0.000000 1.000000
v -0.500000 -0.750000 -0.500000
v -1.500000 -0.000000 1.000000
v -0.500000 0.750000 -0.500000
v 0.500000 0.750000 -0.500000
v -0.250000 0.950000 0.375000
v 0.250000 0.950000 0.375000
v -0.125000 1.050000 0.812500
v 0.125000 1.050000 0.812500
v 0.000000 1.700000 1.100000
v -0.187500 1.000000 0.593750
v 0.187500 1.000000 0.593750
vt 0.093800 0.906300
vt 0.156300 0.906300
vt 0.125000 0.968800
vt 0.093800 0.906300
vt 0.156300 0.906300
vt 0.812500 0.875000
vt 0.937500 1.000000
vt 0.812500 1.000000
vt 0.812500 0.875000
vt 0.937500 1.000000
vt 0.812500 1.000000
vt 0.000000 0.000000
vt 0.000000 0.000000
vt 0.000000 0.000000
vt 0.000000 0.000000
vt 0.000000 0.000000
vt 0.156300 0.968800
vt 0.000000 0.000000
vt 0.000000 0.000000
vt 0.078150 0.453150
vt 0.058612 0.339862
vt 0.039075 0.226575
vt 0.000000 0.000000
vt 0.000000 0.000000
vn 0.8944 -0.0000 0.4472
vn -0.8944 -0.0000 0.4472
vn -0.8321 -0.0000 0.5547
vn -0.8321 0.0000 -0.5547
vn 0.9633 -0.0707 -0.2591
vn -0.9633 -0.0707 -0.2591
vn 0.9283 0.2090 0.3074
vn 0.8925 -0.4336 0.1240
vn 0.5936 -0.8028 -0.0565
vn -0.9283 0.2090 0.3074
vn 0.9146 0.3631 0.1783
vn 0.7287 0.3403 0.5943
vn 0.6132 0.7811 0.1180
vn -0.1182 0.2743 0.9544
vn 0.0000 -0.5463 0.8376
vn 0.5723 0.8197 -0.0238
vn -0.9282 -0.2033 0.3117
usemtl crane_mtl.001
s 1
f 4/1/1 9/2/1 1/3/1
f 8/4/2 6/5/2 1/3/2
f 4/6/3 5/7/3 9/8/3
f 6/9/4 7/10/4 8/11/4
s off
f 2/12/5 15/13/5 14/14/5
f 11/15/6 2/12/6 14/14/6
s 1
f 1/3/7 3/16/8 4/17/9
s off
f 6/18/10 3/16/10 1/19/10
s 1
f 11/20/11 16/21/12 13/22/13 2/12/14 1/19/15 9/2/16
f 2/12/14 12/23/17 15/13/17 10/24/17 8/4/17 1/19/15
l 2 16
