# Blender v2.90.1 OBJ File: 'ag_sprinter.blend'
# www.blender.org
mtllib logevo.mtl
o Log_Evo_Cube.006
v -0.500000 -0.952381 -0.500000
v -0.500000 -0.952381 0.500000
v -0.500000 0.952381 -0.500000
v -0.500000 0.952381 0.500000
v 0.500000 -0.952381 -0.500000
v 0.500000 -0.952381 0.500000
v 0.500000 0.952381 -0.500000
v 0.500000 0.952381 0.500000
v 0.050000 1.250000 0.200000
v 0.850000 1.250000 0.200000
v 0.050000 1.250000 -0.250000
v 0.850000 1.250000 -0.250000
v -0.250000 -1.150000 1.800000
v -0.249000 -1.150000 1.800000
v -0.250000 -1.150000 0.000000
v -0.249000 -1.150000 0.000000
v 0.700000 0.852381 0.500000
v 0.900000 0.852381 -0.500000
v 0.900000 -0.852381 -0.500000
v 0.700000 -0.852381 0.500000
vt 0.375000 0.000000
vt 0.625000 0.000000
vt 0.625000 0.250000
vt 0.375000 0.250000
vt 0.625000 0.500000
vt 0.375000 0.500000
vt 0.375000 0.750000
vt 0.625000 0.750000
vt 0.625000 1.000000
vt 0.375000 1.000000
vt 0.125000 0.500000
vt 0.125000 0.750000
vt 0.875000 0.500000
vt 0.875000 0.750000
vt 0.000000 0.000000
vt 1.000000 0.000000
vt 1.000000 1.000000
vt 0.000000 1.000000
vt 0.000000 0.000000
vt 1.000000 0.000000
vt 1.000000 1.000000
vt 0.000000 1.000000
vt 0.375000 0.500000
vt 0.625000 0.500000
vt 0.625000 0.750000
vt 0.375000 0.750000
vn -1.0000 0.0000 0.0000
vn 0.0000 1.0000 0.0000
vn 0.0000 -1.0000 0.0000
vn 0.0000 0.0000 -1.0000
vn 0.0000 0.0000 1.0000
vn -0.0001 1.0000 0.0000
vn 0.9806 0.0000 0.1961
usemtl None
s off
f 1/1/1 2/2/1 4/3/1 3/4/1
f 3/4/2 4/3/2 8/5/2 7/6/2
f 5/7/3 6/8/3 2/9/3 1/10/3
f 3/11/4 7/6/4 5/7/4 1/12/4
f 8/5/5 4/13/5 2/14/5 6/8/5
f 9/15/2 10/16/2 12/17/2 11/18/2
f 13/19/6 14/20/6 16/21/6 15/22/6
f 18/23/7 17/24/7 20/25/7 19/26/7
